<?xml version="1.0"?><svg id="Layer_2" xmlns="http://www.w3.org/2000/svg" viewBox="0 0 250 279.34"><g id="Layer_1-2"><path fill="#69B3E7" d="M40.06,161.94c1.95,21.18,11.74,40.87,27.45,55.21,15.71,14.34,36.22,22.28,57.49,22.28s41.78-7.95,57.49-22.28c15.71-14.34,25.5-34.03,27.45-55.21h39.83c-1.94,31.78-15.93,61.62-39.11,83.44-23.19,21.82-53.83,33.96-85.66,33.96s-62.47-12.15-85.66-33.96C16.14,223.56,2.15,193.72.21,161.94h39.85Z"></path><path fill="#69B3E7" d="M125.01,43.65l-85.28,39.34v53.92H0V57.66l11.56-5.33L116.7,3.83l8.31-3.83,8.29,3.83,105.14,48.5,11.56,5.33v79.25h-39.73v-53.92l-85.26-39.34Z"></path><path fill="#FA4616" d="M154.77,146.71c-1.77-5.86-4.93-11.2-9.2-15.58-1.43,11.17-8.04,12.23-8.04,12.23.12-.06.23-.13.33-.21l-.33.21c1.31-5.1,1.81-10.38,1.51-15.63-.28-5.39-1.9-10.63-4.7-15.25-3.67-5.61-9.05-9.89-15.34-12.19l-2.55-1,.87,2.59c3.86,11.42-2.32,18.71-9.43,27.15-5.04,5.97-10.24,12.14-12.56,20.46-1.94,6.42-2.28,13.21-.97,19.79,1.06,4.88,3.23,9.45,6.32,13.37,1.31,1.67,2.77,3.22,4.35,4.64,1.27,1.27,2.66,2.41,4.15,3.4-1.7-3.49-2.25-7.42-1.58-11.25,1.64-9.31,13.53-17.57,16.02-30.38.01-.04.04-.08.08-.11.04-.03.08-.04.13-.04s.09.01.13.04c.04.03.06.06.08.11,2.11,11.11,16.33,20.81,16.33,34.05,0,2.62-.58,5.2-1.72,7.56,1.73-1.15,3.32-2.49,4.73-4,1.96-1.65,3.75-3.5,5.31-5.53,3.59-4.68,6.01-10.14,7.07-15.94,1.15-6.15.82-12.5-.99-18.49Z"></path></g></svg>